<?xml version="1.0" encoding="UTF-8" standalone="no"?>
<svg
   xmlns:dc="http://purl.org/dc/elements/1.1/"
   xmlns:cc="http://creativecommons.org/ns#"
   xmlns:rdf="http://www.w3.org/1999/02/22-rdf-syntax-ns#"
   xmlns:svg="http://www.w3.org/2000/svg"
   xmlns="http://www.w3.org/2000/svg"
   xmlns:sodipodi="http://sodipodi.sourceforge.net/DTD/sodipodi-0.dtd"
   xmlns:inkscape="http://www.inkscape.org/namespaces/inkscape"
   version="1.1"
   id="svg2230"
   width="799.84772"
   height="772.57935"
   viewBox="0 0 799.84772 772.57935"
   sodipodi:docname="Kleks.svg"
   inkscape:version="1.0.2 (e86c8708, 2021-01-15)">
  <metadata
     id="metadata2236">
    <rdf:RDF>
      <cc:Work
         rdf:about="">
        <dc:format>image/svg+xml</dc:format>
        <dc:type
           rdf:resource="http://purl.org/dc/dcmitype/StillImage" />
        <dc:title></dc:title>
      </cc:Work>
    </rdf:RDF>
  </metadata>
  <defs
     id="defs2234" />
  <sodipodi:namedview
     pagecolor="#ffffff"
     bordercolor="#666666"
     borderopacity="1"
     objecttolerance="10"
     gridtolerance="10"
     guidetolerance="10"
     inkscape:pageopacity="0"
     inkscape:pageshadow="2"
     inkscape:window-width="1341"
     inkscape:window-height="690"
     id="namedview2232"
     showgrid="false"
     fit-margin-top="0"
     fit-margin-left="0"
     fit-margin-right="0"
     fit-margin-bottom="0"
     inkscape:zoom="0.42541961"
     inkscape:cx="369.31242"
     inkscape:cy="482.66779"
     inkscape:window-x="0"
     inkscape:window-y="23"
     inkscape:window-maximized="0"
     inkscape:current-layer="g2238" />
  <g
     inkscape:groupmode="layer"
     inkscape:label="Image"
     id="g2238"
     transform="translate(-21.671866,-40.334532)">
    <path
       style="fill:#000000"
       d="m 360.56002,810.7174 c -2.17822,-1.46327 -3.92239,-3.78818 -4.85913,-6.47703 -2.40776,-6.91131 -0.47987,-13.06645 11.66431,-37.24037 23.85185,-47.47893 46.5844,-92.04399 46.81668,-91.77977 0.64882,0.73806 -16.68735,102.97074 -18.43382,108.70563 -6.47604,21.26538 -23.79034,34.44818 -35.18804,26.79154 z M 675.05564,733.75 c -5.84468,-3.9307 -13.63719,-13.06008 -25.3935,-29.75 -15.88387,-22.54963 -24.66597,-31.62121 -33.04142,-34.13056 -3.31393,-0.99287 -4.91516,-0.89646 -9.831,0.59193 -7.70274,2.3322 -11.73412,1.0655 -18.64757,-5.85925 -6.56199,-6.57273 2.53093,-49.3293 -10.1743,-71.59846 -27.89097,-45.70478 -64.83983,-33.9177 -88.606,-34.08986 -11.5459,-3.12366 -22.48171,1.63322 -31.75297,13.81199 -9.84646,12.93434 -22.5576,42.26719 -29.47773,68.02421 -1.51462,5.6375 -3.13977,10.25 -3.61143,10.25 -1.33282,0 -1.00523,-5.40582 1.15139,-19 6.80757,-42.91125 6.63052,-64.34317 -0.62237,-75.33838 -3.14522,-4.76808 -9.6721,-7.93062 -14.52483,-7.03787 -10.86377,1.99859 -21.36554,12.73144 -45.37778,46.37625 -23.25439,32.58294 -33.8481,43.00745 -43.69415,42.99626 -4.351,-0.005 -9.57483,-3.2914 -10.38921,-6.53615 -2.33499,-9.30335 3.71243,-20.93454 27.53565,-52.96011 13.76155,-18.49966 19.59912,-27.39049 24.1136,-36.72586 6.22437,-12.8712 12.93428,-26.84059 4.69981,-31.46861 -13.95589,-7.84366 -53.16957,5.41648 -94.99969,26.30563 -8.1125,4.05123 -14.75,7.15975 -14.75,6.90783 0,-0.25192 3.4875,-2.80248 7.75,-5.66791 21.22857,-14.27071 40.04546,-29.99158 48.66035,-40.65406 13.45328,-16.65086 27.05431,-31.00233 14.74139,-36.69036 -4.37037,-2.01892 -19.10891,-0.99971 -37.15174,-0.91367 -16.75882,0.0799 -23.1549,0.61008 -45.5,3.77146 -38.51889,5.44965 -53.54646,6.90042 -65.5,6.32342 -12.48192,-0.60251 -16.79521,-1.76001 -20.9213,-5.61435 -3.51689,-3.28527 -4.13215,-8.1245 -1.50909,-11.86944 4.71783,-6.73564 25.18309,-12.26128 61.93039,-16.72124 59.09978,-7.17286 77.38325,-11.61322 84.9768,-20.63764 2.30711,-2.74184 2.66133,-3.92732 2.25382,-7.54278 -1.3239,-11.74564 -13.56542,-18.9995 -52.73062,-31.24617 -31.36429,-9.80739 -41.87791,-14.24083 -48.9738,-20.65155 -9.20848,-8.3193 -7.21677,-19.96512 3.76691,-22.02566 5.605,-1.05151 19.85893,1.96158 41.20689,8.71057 28.80177,9.10545 36.54012,11.0296 46.5,11.56226 7.39695,0.3956 21.37651,1.92073 24.2531,0.4277 9.56847,-4.96631 -2.4481,-23.59257 -12.40322,-43.37335 -6.84378,-13.59858 -16.69728,-27.63685 -33.84338,-48.21663 -15.65693,-18.79239 -15.79841,-18.82479 6.2627,1.43411 19.00297,17.45059 38.47209,30.09018 48.71467,31.62615 7.09711,1.06428 18.57178,3.29763 22.70694,-1.04932 10.98306,-11.5456 1.55474,-34.81619 -13.30151,-55.45072 l -6.08389,-8.45018 4.3473,3.52539 c 16.76335,13.59409 32.79425,20.89643 45.77879,20.85302 16.24537,-0.0543 52.12763,23.79856 50.65245,2.696 -0.7546,-10.79463 -14.30128,-58.06567 -24.37437,-85.08882 -14.41382,-38.66803 -24.75139,-52.76977 -21.83427,-62.80431 3.21177,-11.048083 12.7509,-13.281973 19.57199,-4.5834 5.89486,7.5174 9.65158,19.91212 18.52174,61.10958 3.57544,16.6061 7.65337,34.16459 9.06208,39.01886 4.59613,15.83786 10.28024,26.4909 15.60344,29.24364 6.65288,3.44033 17.3182,0.0529 24.51438,-7.78609 7.24566,-7.89288 13.86672,-24.72679 15.84417,-40.2835 0.34956,-2.75 0.89231,-6.35 1.20611,-8 0.55847,-2.93647 0.58891,-2.95038 1.43794,-0.65674 0.47706,1.2888 1.35435,8.90284 1.94953,16.9201 4.78428,12.02073 9.59213,58.23877 20.47389,64.10301 28.5303,-22.82763 50.9924,-53.50934 67.44045,-74.86637 27.60683,-35.94926 39.1003,-48.48396 49.10523,-53.55385 5.8652,-2.97212 9.72128,-3.08494 14.91297,-0.43634 9.88755,5.04425 9.20684,16.75983 -2.01283,34.6425 -5.91505,9.42781 -13.89438,19.541 -34.69854,43.97769 -21.66401,25.4467 -26.69555,31.76799 -32.71911,41.10609 -9.75177,15.11781 -15.94658,30.53995 -6.86673,34.33375 9.13286,3.81595 22.79776,-6.62456 44.27798,-26.06984 17.85198,-16.16077 22.23269,-19 29.31548,-19 7.4745,0 12.69337,5.84686 12.67514,14.20034 -0.0157,7.20643 -4.2373,12.89083 -22.63889,30.48363 -19.79259,18.92266 -37.9368,36.32237 -37.89586,45.00273 0.0802,17.00391 34.14483,14.58532 67.04413,13.00391 6.6,-0.31725 17.28031,-1.13461 23.73402,-1.81636 6.45371,-0.68175 12.03034,-0.94322 12.3925,-0.58106 1.39588,1.39588 -1.9334,3.52357 -8.88585,5.67882 -32.31902,10.01885 -45.20817,15.44108 -53.40276,22.46556 -8.23378,7.05807 -10.74582,17.54734 -5.65209,23.60089 6.86626,8.1601 24.91263,11.14839 75.31418,12.47125 51.75043,1.35826 68.59853,4.07922 74.90543,12.09725 2.5156,3.19804 2.5896,4.5476 0.4916,8.96873 -2.0548,4.33016 -9.3748,7.98379 -18.897,9.43206 -9.5966,1.45958 -31.4488,1.64781 -74.00003,0.63742 -39.83871,-0.94597 -50.94716,-0.1164 -60.24999,4.49943 -8.34424,4.1402 -11.40554,12.1084 -8.85964,23.06052 3.02852,13.02824 12.98063,23.59464 35.26463,37.44131 1.23469,0.7672 1.51421,1.48172 0.845,2.16003 -0.67441,0.68358 -3.60474,0.2221 -9,-1.41736 -32.89018,-9.9943 -46.01245,-10.02611 -56.25,-0.13636 -2.94545,2.84539 -3.25,3.69306 -3.25,9.04592 0,14.59046 11.91362,39.38488 48.86708,101.70134 43.06195,72.61751 55.9524,98.54675 56.33446,113.31717 0.14817,5.72854 -1.3678,8.98192 -4.9447,10.61167 -4.27339,1.94708 -8.78201,1.23848 -13.86334,-2.17884 z M 136.88195,649.42225 c -5.97469,-2.97732 -9.57162,-6.86978 -12.86521,-13.92225 -5.70988,-12.2264 -1.14192,-23.14087 12.55073,-29.98809 5.21457,-2.60763 98.13354,-46.09386 101.00871,-47.27224 3.15789,-1.29426 -0.42861,1.90326 -11.62401,10.36331 -35.69455,26.97336 -48.45947,40.82241 -57.36172,62.23351 -4.23769,10.1922 -8.08496,15.58497 -13.29807,18.64005 -5.71431,3.34881 -11.61622,3.33141 -18.41043,-0.0543 z m 347.78019,-1.29303 c -11.37525,-3.64674 -19.55446,-11.76075 -19.35927,-19.20494 0.20119,-7.67278 9.71649,-19.15026 17.01082,-20.51869 8.47899,-1.59067 21.32938,5.12913 26.81133,14.02033 3.94574,6.39961 4.25985,15.05058 0.75252,20.72556 -4.08328,6.60688 -14.01682,8.56785 -25.2154,4.97774 z m 296.29313,-32.52161 c -2.3138,-0.75412 -5.9485,-2.66184 -8.0771,-4.23937 -4.4292,-3.28248 -105.23478,-101.68282 -104.70798,-102.20963 0.19032,-0.19032 10.16637,5.80916 22.16899,13.33217 32.80409,20.56097 54.88989,30.96429 73.32299,34.53816 3.025,0.5865 12.025,1.48944 20,2.00654 13.4187,0.87008 14.9847,1.18344 21,4.20235 4.6395,2.32846 7.3586,4.50328 9.5,7.59831 2.7688,4.00202 3,5.00375 3,13 0,7.18232 -0.4207,9.51887 -2.4601,13.66386 -6.9705,14.16718 -21.6575,22.04784 -33.7468,18.10761 z m 21.561,-278.57905 c -11.686,-5.30433 -17.6355,-6.32928 -33.3421,-5.74405 -9.9032,0.369 -18.5572,1.42909 -29.512,3.61512 -8.525,1.70116 -16.175,3.06727 -17,3.0358 -0.825,-0.0315 14.925,-6.60144 35,-14.59992 41.0073,-16.33857 44.478,-17.21885 52.5269,-13.32245 7.6488,3.70271 12.5821,13.26167 11.0524,21.41558 -1.6046,8.55325 -8.003,10.46677 -18.7252,5.59992 z M 161.16214,285.03289 c -6.67574,-3.20966 -10.5,-7.55021 -10.5,-11.91754 0,-3.31359 4.30845,-10.43221 7.63195,-12.60985 6.00926,-3.93742 16.64766,-0.40281 21.85574,7.26158 3.70409,5.45105 3.52985,12.36923 -0.41077,16.30984 -2.56942,2.56942 -3.62806,2.92042 -8.75,2.90112 -3.65622,-0.0138 -7.31703,-0.7384 -9.82692,-1.94515 z M 63.162141,240.0799 c -9.13113,-2.49815 -13.42546,-4.37031 -21.00573,-9.15768 -11.37947,-7.18679 -20.45994,-19.46454 -20.4845,-27.6972 -0.0139,-4.67276 3.20779,-13.20729 7.3301,-19.41781 C 37.608771,170.84057 50.232161,162 60.140361,162 c 17.31351,0 40.724969,15.64434 48.739959,32.56972 2.98343,6.30017 3.27483,7.74857 3.20499,15.93028 -0.12075,14.14404 -5.28016,23.69018 -15.316209,28.33861 -7.62159,3.53013 -23.14516,4.1035 -33.60696,1.24129 z M 681.49316,226.47048 c -3.24616,-1.7629 -5.27842,-7.16914 -3.9758,-10.57644 2.11571,-5.5341 8.05135,-8.02796 13.00743,-5.46507 5.98726,3.09613 7.00874,9.85349 2.21427,14.64795 -3.2666,3.26661 -6.95525,3.72369 -11.2459,1.39356 z M 319.15773,216.25 c -2.4935,-3.1625 -8.46258,-11.59226 -13.26462,-18.73279 C 288.37847,171.47326 273.32539,155.2258 244.61168,131.37343 221.32759,112.03143 216.16201,104.70079 216.16229,91 c 1.4e-4,-6.461781 0.41542,-8.250366 3,-12.920576 C 223.94085,69.44481 234.6871,63 244.30613,63 c 6.00436,0 13.82188,3.721567 18.64191,8.874563 5.85039,6.254546 5.89774,6.353636 18.30599,38.316257 5.83095,15.02005 16.89488,43.50918 24.5865,63.30918 18.00766,46.35589 18.8163,48.5 18.29142,48.5 -0.24231,0 -2.48071,-2.5875 -4.97422,-5.75 z m 175.78125,-83.22272 c -3.83696,-2.33949 -5.07828,-6.16126 -3.16335,-9.73934 3.36168,-6.28135 8.78406,-6.59039 14.54545,-0.829 3.6669,3.6669 4.21665,6.84597 1.78436,10.31855 -2.02998,2.8982 -8.61786,3.02319 -13.16646,0.24979 z m 6.45763,-55.060428 C 489.787,75.062387 480.66214,66.823433 480.66214,59.245441 c 0,-3.54098 4.45656,-10.700628 9.30329,-14.946117 4.79562,-4.200722 9.17693,-4.964848 15.81857,-2.758849 6.97313,2.316101 16.24126,11.209601 17.79335,17.074115 1.91582,7.238892 -1.17766,15.81707 -6.59396,18.284898 -3.73609,1.70228 -11.04761,2.202964 -15.58678,1.067364 z"
       id="path2242"
       sodipodi:nodetypes="sssssssssssccssssssssssssssssssssssssssssssssssssscssssssssssssscccsssssssssssssssssssssssssssssssssssssssssssssssssssssssssssssssssssssssssssssssssssssssssssssssssssssssssssssss" />
  </g>
</svg>
