<?xml version="1.0" encoding="UTF-8" standalone="no"?>
<svg
   xmlns:dc="http://purl.org/dc/elements/1.1/"
   xmlns:cc="http://creativecommons.org/ns#"
   xmlns:rdf="http://www.w3.org/1999/02/22-rdf-syntax-ns#"
   xmlns:svg="http://www.w3.org/2000/svg"
   xmlns="http://www.w3.org/2000/svg"
   xmlns:sodipodi="http://sodipodi.sourceforge.net/DTD/sodipodi-0.dtd"
   xmlns:inkscape="http://www.inkscape.org/namespaces/inkscape"
   width="38.590332mm"
   height="36.909832mm"
   viewBox="0 0 38.590332 36.90983"
   version="1.1"
   id="svg1001"
   inkscape:version="1.0.2 (e86c8708, 2021-01-15)"
   sodipodi:docname="Logo.svg">
  <defs
     id="defs995" />
  <sodipodi:namedview
     id="base"
     pagecolor="#ffffff"
     bordercolor="#666666"
     borderopacity="1.0"
     inkscape:pageopacity="0.0"
     inkscape:pageshadow="2"
     inkscape:zoom="3.0835443"
     inkscape:cx="75.747276"
     inkscape:cy="95.177403"
     inkscape:document-units="mm"
     inkscape:current-layer="layer1"
     inkscape:document-rotation="0"
     showgrid="false"
     inkscape:window-width="1378"
     inkscape:window-height="953"
     inkscape:window-x="0"
     inkscape:window-y="23"
     inkscape:window-maximized="0"
     fit-margin-top="0"
     fit-margin-left="0"
     fit-margin-right="0"
     fit-margin-bottom="0" />
  <metadata
     id="metadata998">
    <rdf:RDF>
      <cc:Work
         rdf:about="">
        <dc:format>image/svg+xml</dc:format>
        <dc:type
           rdf:resource="http://purl.org/dc/dcmitype/StillImage" />
        <dc:title></dc:title>
      </cc:Work>
    </rdf:RDF>
  </metadata>
  <g
     inkscape:label="Ebene 1"
     inkscape:groupmode="layer"
     id="layer1"
     transform="translate(-180.00634,-101.95397)">
    <path
       id="path980"
       style="display:inline;fill:#d47479;fill-opacity:1;stroke-width:4.69944;stroke-linecap:butt;stroke-linejoin:round;stroke-miterlimit:4;stroke-dasharray:none;paint-order:markers stroke fill"
       d="m 218.59667,106.89457 c 0,8.56955 -16.78537,31.21136 -23.72077,27.64445 -9.02213,-4.6405 -13.01958,-4.09347 -13.01958,-12.66304 0,-8.56936 2.87408,-18.36995 13.01958,-18.36995 10.1455,0 23.72077,-5.18082 23.72077,3.38854 z"
       sodipodi:nodetypes="sssss" />
    <path
       id="path928"
       style="display:inline;fill:none;stroke:#000000;stroke-width:6.94572;stroke-linecap:butt;stroke-linejoin:round;stroke-miterlimit:4;stroke-dasharray:none;stroke-opacity:1"
       d="m 207.53956,107.27959 c -8.235,1.21658 -10.3584,5.62887 -13.11124,11.86902 0.0861,-2.23496 2.71075,-4.45067 3.2841,-6.76864 0.83049,-3.35897 -4.73431,-5.89374 -8.86961,-6.06327 -3.11243,-0.12952 -6.51756,2.01683 -5.01172,8.29928 2.14413,9.60841 2.79148,10.14357 7.0536,20.7753 7.28893,-9.24431 13.24197,-11.08665 19.77442,-20.94745 2.30374,-4.95152 1.61349,-7.24167 -1.60703,-7.29021 z"
       sodipodi:nodetypes="ccssccccc" />
  </g>
</svg>
