<?xml version="1.0" encoding="UTF-8" standalone="no"?><svg xmlns:svg="http://www.w3.org/2000/svg" xmlns="http://www.w3.org/2000/svg" width="45.107277mm" height="10.413834mm" viewBox="0 0 45.107277 10.413834" version="1.1" id="svg8"><defs id="defs2"><rect x="30.238094" y="47.625" width="118.68452" height="28.726191" id="rect835"/></defs><metadata id="metadata5"/><g id="layer1" transform="translate(-30.53457,-49.974727)"><g aria-label="Briefsteller" id="text833"><path id="path839" d="m 132.48633,188.88086 c -2.53333,0 -4.81318,0.49185 -6.83985,1.47852 -2.02665,0.98662 -3.68094,2.3611 -4.96093,4.12109 -0.15999,0.18667 -0.23828,0.39867 -0.23828,0.63867 0,0.39999 0.23875,0.60156 0.71875,0.60156 0.34666,0 0.64086,-0.13374 0.88086,-0.40039 1.57329,-1.75999 3.13302,-3.0007 4.67968,-3.7207 1.57333,-0.72 3.49311,-1.08008 5.75977,-1.08008 2.15999,0 3.82667,0.38683 5,1.16016 1.19999,0.77333 1.80078,1.91946 1.80078,3.43945 0,1.62666 -0.65428,2.96001 -1.96094,4 -1.30666,1.04 -2.95899,1.56055 -4.95898,1.56055 -0.69334,0 -1.04102,0.27984 -1.04102,0.83984 0,0.16 0.0678,0.33286 0.20117,0.51953 2.05515,0.23577 2.11639,0.30716 2.63868,0.48047 1.41332,0.26667 2.48117,0.82636 3.20117,1.67969 0.71999,0.85333 1.08008,1.89443 1.08008,3.12109 0,2.24 -0.52056,4.13303 -1.56055,5.67969 -1.14666,1.70666 -2.67961,2.56055 -4.59961,2.56055 -0.61333,0 -1.22651,-0.13375 -1.83984,-0.40039 -0.61333,-0.26667 -1.14824,-0.61436 -1.60157,-1.04102 -0.23999,-0.21335 -0.49308,-0.31836 -0.75976,-0.31836 -0.53335,0 -0.79883,0.2655 -0.79883,0.79883 0,0.24001 0.0926,0.45395 0.2793,0.64062 0.55999,0.50667 1.19992,0.93264 1.91992,1.2793 0.35045,0.16038 0.69253,0.32422 1.35937,0.48047 0.4,0.10666 0.85467,0.16016 1.36133,0.16016 0.53333,0 1.01279,-0.0535 1.43945,-0.16016 0.65188,-0.19031 0.92615,-0.26453 1.48047,-0.48047 1.2745,-0.56164 2.32539,-1.45287 3.16211,-2.66211 0.14828,-0.0488 0.28325,-0.12569 0.38672,-0.26367 0.58666,-0.77333 6.55591,-7.68678 7.14258,-8.27344 0.77333,-0.77332 1.39891,-1.22798 1.87891,-1.36133 0.29331,-0.08 0.43945,0.027 0.43945,0.32032 0,0.4 -0.39922,1.82792 -1.19922,4.28125 l -2.43945,7.39843 c -0.08,0.21335 -0.0944,0.40056 -0.041,0.56055 0.11234,0.14957 0.10637,0.33684 0.40039,0.48047 0.08,0.0532 0.21372,0.0801 0.40039,0.0801 0.21334,0 0.35944,-0.0268 0.43946,-0.0801 0.24541,-0.12367 0.32227,-0.15682 0.48046,-0.48047 0.32,-1.01333 0.6266,-1.91875 0.91993,-2.71875 0.45333,-1.22666 0.89365,-2.26776 1.32031,-3.12109 0.56,-1.09333 1.33365,-2.21271 2.32031,-3.35938 0.66666,-0.74666 1.45271,-1.5738 2.35938,-2.48047 0.50666,0.85333 1.17333,1.46651 2,1.83985 0.66666,0.29331 1.46706,0.43945 2.40039,0.43945 0.0513,0 0.0871,-0.0128 0.13476,-0.0156 0.0144,5.2e-4 0.0241,0.006 0.0391,0.006 0.21332,-1e-5 0.8843,-0.0867 1.09765,-0.19336 1.68041,-0.66249 1.57349,-0.54049 2.53516,-1.01954 0.66442,-0.53216 1.077,-0.635 1.26367,-0.875 l -2.45508,6.89844 c -0.39999,1.33333 -0.59961,2.34573 -0.59961,3.03906 0,0.72 0.16046,1.24054 0.48047,1.56055 0.75876,1.09401 2.75977,0 2.75977,0 0.35221,-0.16906 0.7429,-0.39238 1.16211,-0.6582 0.0229,-0.009 0.0431,-0.0122 0.0664,-0.0215 0.24,-0.13333 0.65357,-0.41317 1.24024,-0.83984 0.56,-0.45333 1.11969,-0.89365 1.67968,-1.32031 0.10667,0.66666 0.27954,1.2407 0.51954,1.7207 0.26664,0.48 0.61434,0.85246 1.04101,1.11914 0.50764,0.48903 1.66196,0.80417 3.87891,0 0.79999,-0.29333 1.62714,-0.77279 2.48047,-1.43945 0.58666,-0.45333 1.29443,-1.08086 2.12109,-1.88086 0.0123,-0.0123 0.0157,-0.0248 0.0273,-0.0371 l 2.61914,-2.48242 1.35938,-1.43946 -1.83984,5.79883 c -0.61334,-0.18666 -1.07843,-0.41307 -1.39844,-0.67968 -0.16,-0.13335 -0.33482,-0.19922 -0.52149,-0.19922 -0.26664,0 -0.46626,0.0802 -0.59961,0.24023 -0.13334,0.16 -0.19921,0.35961 -0.19922,0.59961 1e-5,0.29333 0.11938,0.5197 0.35938,0.67969 l 0.59961,0.40039 c 0.32,0.21334 0.62659,0.35944 0.91992,0.43945 0.22545,0.0803 0.18051,0.25925 0.12109,0.48047 l -3.24023,10.11914 c -0.1067,0.34667 -0.0532,0.61411 0.16016,0.80078 0.18666,0.21336 0.42542,0.32031 0.71875,0.32031 0.45332,0 0.75993,-0.22635 0.91992,-0.67968 L 180.26953,217 c 0.63561,0.009 1.47374,0.009 3.67969,-0.48047 0.88,-0.21333 1.72149,-0.58581 2.52148,-1.11914 0.8,-0.53333 1.62519,-1.26784 2.47852,-2.20117 0.0318,-0.0389 0.0446,-0.0685 0.0723,-0.10547 0.66061,-0.62317 1.40804,-1.34163 2.48047,-2.41406 l 5.11914,-5.2793 c 0.23999,1.17333 0.46634,2.29271 0.67969,3.35938 0.21336,1.03999 0.32031,1.95976 0.32031,2.75976 0,2.53333 -1.05349,3.80078 -3.16015,3.80078 -0.56,0 -1.0662,-0.0946 -1.51953,-0.28125 -0.42667,-0.21333 -0.85264,-0.53231 -1.2793,-0.95898 -0.21332,-0.21336 -0.42727,-0.32031 -0.64063,-0.32031 -0.53335,0 -0.80078,0.29421 -0.80078,0.88085 0,0.18668 0.0535,0.34518 0.16016,0.47852 0.48,0.61333 1.06645,1.08038 1.75976,1.40039 1.9209,0.76375 3.25103,0.48922 4.64063,0 0.31738,-0.14877 0.59516,-0.33827 0.85352,-0.54883 0.13595,-0.0246 0.27223,-0.0629 0.4082,-0.13086 0.74666,-0.37333 1.78581,-1.17372 3.11914,-2.40039 0.96,-0.90666 1.92086,-1.82643 2.88086,-2.75976 0.8,-0.74667 1.5593,-1.57381 2.2793,-2.48047 0.74666,-0.93333 1.33309,-1.75852 1.75976,-2.47852 l -0.95898,2.95899 c -0.37333,1.14666 -0.66751,2.13429 -0.88086,2.96093 -0.18667,0.82667 -0.2793,1.58597 -0.2793,2.2793 0,1.28 0.22636,2.14628 0.67969,2.59961 0.86877,0.77211 2.09849,0.48904 3.40039,0 0.99578,-0.43882 1.96866,-1.06197 2.92187,-1.83203 0.42719,-0.34115 0.85399,-0.68228 1.28125,-1.00781 0.10667,0.66666 0.27956,1.2407 0.51953,1.7207 0.26667,0.48 0.61435,0.85246 1.04102,1.11914 1.42491,0.74902 2.24555,0.48903 3.87891,0 0.79999,-0.29333 1.62714,-0.77279 2.48047,-1.43945 0.58666,-0.45333 1.29247,-1.08086 2.11914,-1.88086 0.0483,-0.0483 0.0708,-0.0962 0.10937,-0.14453 0.88203,-0.80587 1.74767,-1.60559 2.53906,-2.375 l 1.56055,-1.64063 c -0.21334,0.8 -0.36139,1.41514 -0.44141,1.8418 -0.26665,1.30666 -0.39843,2.29232 -0.39843,2.95898 0,0.72 0.0535,1.29404 0.16015,1.72071 0.10667,0.4 0.31869,0.71898 0.63867,0.95898 0.71867,0.72186 2.01449,0.48904 3.28126,0 0.43165,-0.20784 0.88787,-0.47965 1.35742,-0.7832 0.15476,-0.0914 0.34643,-0.22233 0.57226,-0.39063 0.13105,-0.0923 0.25475,-0.16626 0.38867,-0.26562 0.6801,-0.51007 1.24032,-1.01055 1.73438,-1.50391 0.008,-0.007 0.0119,-0.009 0.0195,-0.0156 1.09333,-0.98667 2.12008,-1.94753 3.08008,-2.88086 l 1.56055,-1.64063 c -0.21334,0.8 -0.3614,1.41514 -0.44141,1.8418 -0.26666,1.30666 -0.39844,2.29232 -0.39844,2.95898 0,0.72 0.0535,1.29404 0.16016,1.72071 0.10666,0.4 0.31866,0.71898 0.63867,0.95898 0.7396,0.82913 1.66833,0.48904 3.28125,0 0.38054,-0.18322 0.7776,-0.40845 1.1875,-0.66601 0.0155,-0.006 0.0292,-0.007 0.0449,-0.0137 0.24,-0.13333 0.65357,-0.41317 1.24024,-0.83984 0.55999,-0.45333 1.11969,-0.89365 1.67968,-1.32031 0.10667,0.66666 0.27953,1.2407 0.51954,1.7207 0.26664,0.48 0.61434,0.85246 1.04101,1.11914 1.10271,0.83908 2.61066,0.48903 3.87891,0 0.79999,-0.29333 1.62714,-0.77279 2.48047,-1.43945 0.56591,-0.4373 2.53024,-3.07117 3.07421,-4.19141 -0.0281,0.0497 -0.0265,0.0504 0.0859,-0.14844 0.21797,-0.3854 0.34739,-0.47767 0.35547,-0.70117 0.0282,-0.0287 0.0643,-0.0421 0.0898,-0.0762 0.34359,-1.56883 1.75905,-4.0481 2.34571,-4.63477 0.77333,-0.77329 1.39891,-1.22603 1.8789,-1.35937 0.29332,-0.08 0.43946,0.027 0.43946,0.32031 0,0.4 -0.39922,1.82597 -1.19922,4.2793 l -2.43946,7.40039 c -0.08,0.21334 -0.0943,0.40056 -0.041,0.56055 0.11464,0.14845 0.10831,0.30774 0.40039,0.48047 0.08,0.0532 0.21372,0.0801 0.40039,0.0801 0.21334,0 0.35944,-0.0268 0.43945,-0.0801 0.2801,-0.13674 0.38084,-0.34422 0.48047,-0.48047 0.32,-1.01334 0.6266,-1.92071 0.91992,-2.72071 0.45334,-1.22666 0.89365,-2.26581 1.32032,-3.11914 0.55999,-1.09333 1.33364,-2.21466 2.32031,-3.36133 0.66667,-0.74663 1.45271,-1.57185 2.35937,-2.47851 0.50667,0.85333 1.17334,1.4665 2,1.83984 0.66667,0.29332 1.46709,0.43946 2.40039,0.43946 0.72,0 1.08008,-0.27985 1.08008,-0.83985 0,-0.53335 -0.27984,-0.80078 -0.83984,-0.80078 -0.69333,0 -1.26737,-0.0926 -1.7207,-0.2793 -0.66669,-0.29333 -1,-0.77279 -1,-1.43945 0,-0.21335 0.0122,-0.37381 0.0391,-0.48047 0.08,-0.34666 0.0533,-0.59978 -0.0801,-0.75976 -0.55764,-0.23743 -0.84985,-0.40352 -1.35937,0 -0.90667,0.61333 -1.71946,1.25326 -2.43946,1.91992 -0.47999,0.45333 -1.10752,1.14675 -1.88086,2.08008 0.08,-0.29334 0.18697,-0.68016 0.32032,-1.16016 0.13334,-0.50666 0.20117,-0.94697 0.20117,-1.32031 0,-0.74667 -0.25506,-1.25289 -0.76172,-1.51953 -0.56839,-0.56031 -1.24934,-0.28726 -2,0 -0.66666,0.31999 -1.37248,0.8262 -2.11914,1.51953 -0.74667,0.66667 -1.76467,2.38355 -2.21875,3.95312 -0.24763,0.60846 -0.52684,1.28204 -0.57422,1.53907 -1.49534,2.68752 -3.2109,4.43304 -4.19727,5.01953 -0.95999,0.56001 -1.82628,0.83984 -2.59961,0.83984 -1.27999,0 -1.91992,-0.96087 -1.91992,-2.88086 1.33333,-0.93333 2.66667,-1.87985 4,-2.83984 1.86666,-1.46666 2.99844,-2.82675 3.39844,-4.08008 0.10666,-0.32 0.16016,-0.65334 0.16016,-1 0,-1.01333 -0.43836,-1.70674 -1.31836,-2.08008 -1.27733,-0.30935 -1.51279,-0.40591 -2.64063,0 -1.43999,0.50667 -2.63961,1.56016 -3.59961,3.16016 -1.06666,1.75999 -1.59961,3.77435 -1.59961,6.04101 -0.61333,0.53334 -1.24086,1.05193 -1.88086,1.5586 -0.19479,0.16 -0.34233,0.26956 -0.51172,0.40234 -0.25641,0.17241 -0.48468,0.33499 -0.76171,0.51758 -1.14667,0.77333 -1.87921,1.16015 -2.19922,1.16016 -0.63999,0 -0.96094,-0.37248 -0.96094,-1.11915 0,-0.31999 0.0142,-0.59984 0.041,-0.83984 0.0533,-0.26666 0.1192,-0.69459 0.19921,-1.28125 0.10667,-0.58667 0.37412,-1.77193 0.80079,-3.55859 0.10666,-0.50667 0.27953,-1.20008 0.51953,-2.08008 1.30666,-1.17333 2.59993,-2.49355 4.41992,-4.54688 1.81999,-2.05332 3.21961,-3.85297 4.09961,-5.29297 0.88,-1.51996 1.32031,-2.86768 1.32031,-4.04101 0,-0.85333 -0.2407,-1.54675 -0.7207,-2.08008 -0.48,-0.53331 -1.1591,-0.79883 -2.03906,-0.79883 -2.16,0 -3.99954,2.19963 -5.51954,6.59961 l -1.96093,5.95899 -0.35938,1.04101 -0.75976,2.40039 -2.40039,2.5586 c -2.02667,2.05332 -3.57397,3.56149 -4.64063,4.52148 -0.30651,0.27245 -0.55036,0.4684 -0.81055,0.6836 -0.31538,0.23676 -0.61082,0.46992 -0.98242,0.71484 -1.14666,0.77333 -1.8792,1.16015 -2.19922,1.16016 -0.63998,0 -0.96094,-0.37248 -0.96094,-1.11915 1e-5,-0.31999 0.0142,-0.59984 0.041,-0.83984 0.0533,-0.26666 0.11921,-0.69459 0.19922,-1.28125 0.10667,-0.58667 0.37411,-1.77193 0.80078,-3.55859 0.10667,-0.50667 0.27953,-1.20008 0.51953,-2.08008 1.30666,-1.17333 2.59993,-2.49355 4.41992,-4.54688 1.82,-2.05332 3.21961,-3.85297 4.09961,-5.29297 0.88,-1.51996 1.32032,-2.86768 1.32032,-4.04101 0,-0.85333 -0.24071,-1.54675 -0.72071,-2.08008 -0.47999,-0.53331 -1.15906,-0.79883 -2.03906,-0.79883 -2.15999,0 -3.99954,2.19963 -5.51953,6.59961 l -1.96094,5.95899 -0.35937,1.04101 -0.75977,2.40039 -2.40039,2.5586 c -2.02666,2.05332 -3.57396,3.56149 -4.64063,4.52148 -0.95996,0.85333 -1.69255,1.42542 -2.19921,1.71875 -0.0716,0.0409 -0.12958,0.0879 -0.1875,0.13477 -0.88752,0.49075 -1.69599,0.74609 -2.41993,0.74609 -1.27999,0 -1.91992,-0.96087 -1.91992,-2.88086 1.33333,-0.93333 2.66667,-1.87985 4,-2.83984 1.86666,-1.46666 3.00039,-2.82675 3.40039,-4.08008 0.10666,-0.32 0.15821,-0.65334 0.15821,-1 0,-1.01333 -0.43836,-1.70674 -1.31836,-2.08008 l -0.83399,-0.20508 -0.7207,-0.008 -1.08594,0.21289 c -1.43999,0.50667 -2.63961,1.56016 -3.59961,3.16016 -1.06666,1.75999 -1.59961,3.77435 -1.59961,6.04101 -0.0463,0.0403 -0.0961,0.0771 -0.14257,0.11719 -0.0919,0.0314 -0.17977,0.0802 -0.26172,0.16211 -0.1695,0.17601 -0.38866,0.35789 -0.58204,0.53711 -0.29869,0.2468 -0.58999,0.50109 -0.89453,0.74219 -0.74666,0.61332 -1.30634,1.02688 -1.67968,1.24023 -0.1241,0.062 -0.21981,0.13805 -0.30274,0.2207 -0.68956,0.41143 -1.20441,0.61914 -1.54101,0.61915 -0.66669,0 -1,-0.49381 -1,-1.48047 0,-0.34667 0.0411,-0.71915 0.12109,-1.11914 0.1067,-0.42666 0.17238,-0.69413 0.19922,-0.80079 l 2.83984,-9.43945 0.10938,-0.39648 3.33008,0.0371 h 1.24023 c 0.56001,0 0.83984,-0.26747 0.83984,-0.80078 0,-0.21333 -0.0802,-0.38619 -0.24023,-0.51954 -0.13333,-0.15998 -0.33296,-0.24023 -0.59961,-0.24023 h -4.08008 l 2.32031,-7.56055 c 0.10666,-0.29334 0.0675,-0.53208 -0.11914,-0.71875 -0.15999,-0.18667 -0.37394,-0.28125 -0.64062,-0.28125 -0.42666,0 -0.72087,0.21396 -0.88086,0.64063 l -0.11914,0.40039 c -0.93333,2.93332 -1.8942,5.43954 -2.88086,7.51953 h -3.67969 c -0.56001,0 -0.83984,0.27984 -0.83984,0.83984 0,0.29333 0.10696,0.49295 0.32031,0.59961 l 2.92383,0.0449 c 0.50321,-0.0127 0.58074,-0.006 0.27539,0.43555 -0.37333,0.74667 -0.82604,1.50792 -1.35938,2.28125 -0.37333,0.53333 -0.7869,1.10542 -1.24023,1.71875 -0.85333,1.17333 -2.22581,2.69389 -4.11914,4.56055 -0.86492,0.85256 -1.6085,1.54085 -2.25586,2.0957 0.10203,-0.52563 0.1543,-1.10388 0.1543,-1.73633 0,-0.37333 -0.24071,-1.81365 -0.72071,-4.32031 -0.18667,-0.98666 -0.27929,-1.66572 -0.27929,-2.03906 0,-0.47999 0.0391,-0.82766 0.11914,-1.04102 0.08,-0.24 0.19939,-0.54658 0.35937,-0.91992 0.08,-0.18666 0.0943,-0.38625 0.041,-0.59961 -0.0158,-0.27621 -0.0902,-0.29648 -0.24024,-0.48047 -0.13331,-0.08 -0.26705,-0.11914 -0.40039,-0.11914 -0.13333,0 -0.27946,0.0391 -0.43945,0.11914 -0.27571,0.22764 -0.56055,0.48047 -0.56055,0.48047 -0.74666,0.74667 -1.69318,1.71993 -2.83984,2.91992 -1.01333,1.06667 -1.91875,2.03993 -2.71875,2.91993 -1.65333,1.78664 -3.09365,3.22698 -4.32031,4.32031 -0.96,0.85333 -1.80149,1.49325 -2.52149,1.91992 -0.0293,0.0195 -0.0496,0.0421 -0.0762,0.0625 -0.91249,0.40398 -1.92084,0.61719 -3.03516,0.61719 -0.37333,0 -0.65317,-0.0122 -0.83984,-0.0391 l 2.80078,-8.75976 c 0.8,-0.66666 1.52016,-1.30659 2.16016,-1.91992 0.4,-0.4 1.03995,-1.08126 2.11328,-2.28125 1.07333,-1.2 1.86076,-2.17349 2.60742,-3.16016 0.74667,-1.01333 1.29201,-1.82612 1.63867,-2.43945 0.85333,-1.44 1.28125,-2.78574 1.28125,-4.03907 0,-0.87996 -0.2407,-1.58776 -0.7207,-2.12109 -0.48,-0.53331 -1.16102,-0.79883 -2.04102,-0.79883 -2.23999,0 -4.11867,2.19963 -5.63867,6.59961 l -1.93945,5.95899 -0.30078,1.04101 -0.75977,2.40039 -2.35937,2.5586 c -1.73332,1.78667 -2.66744,2.73318 -2.80078,2.83984 -1.78667,1.75999 -3.13436,2.89373 -4.04102,3.40039 -0.10554,0.0603 -0.19204,0.12632 -0.26758,0.19727 -0.83963,0.44675 -1.6081,0.68359 -2.29883,0.68359 -1.27999,0 -1.91992,-0.96087 -1.91992,-2.88086 1.33333,-0.93333 2.66667,-1.87985 4,-2.83984 1.86666,-1.46666 3.00039,-2.82675 3.40039,-4.08008 0.10666,-0.32 0.16016,-0.65334 0.16016,-1 0,-1.01333 -0.44031,-1.70674 -1.32031,-2.08008 -0.77138,-0.35354 -1.36783,-0.28872 -2.64063,0 -1.43999,0.50667 -2.63961,1.56016 -3.59961,3.16016 -1.06666,1.75999 -1.59961,3.77435 -1.59961,6.04101 -0.0592,0.0515 -0.12216,0.0992 -0.18164,0.15039 -0.0963,0.0252 -0.18221,0.0631 -0.24804,0.12891 -0.1682,0.174 -0.34999,0.34749 -0.53711,0.52148 -0.305,0.25224 -0.60298,0.51154 -0.91407,0.75782 -0.24623,0.20226 -0.44089,0.34901 -0.64648,0.50781 -0.16971,0.12674 -0.33002,0.25411 -0.50977,0.38086 -0.19181,0.13579 -0.38379,0.27176 -0.52343,0.35156 -0.10674,0.0534 -0.19325,0.11694 -0.26954,0.18555 -0.85041,0.5314 -1.39677,0.75044 -1.5996,0.61523 -0.13335,-0.10667 -0.19922,-0.2939 -0.19922,-0.56054 0,-0.16 0.0535,-0.46659 0.16015,-0.91993 0.13333,-0.45333 0.27947,-0.92039 0.43946,-1.40039 l 2.83984,-8.71875 c 0.0532,-0.15998 0.0801,-0.28131 0.0801,-0.36132 0,-0.53336 -0.27984,-0.79883 -0.83985,-0.79883 -0.42666,0 -0.54202,0.15417 -1.14843,0.60937 -0.95093,0.66964 -1.34381,1.61265 -4.49024,2.25781 -0.089,0.0162 -0.15869,0.0547 -0.23828,0.082 -0.0709,-0.0118 -0.13539,-0.0293 -0.21875,-0.0293 -0.69333,0 -1.26737,-0.0946 -1.7207,-0.28125 -0.66668,-0.29333 -1,-0.77279 -1,-1.43945 0,-0.21336 0.0122,-0.37381 0.0391,-0.48047 0.08,-0.34667 0.0552,-0.59978 -0.0781,-0.75977 -0.56756,-0.39541 -0.78764,-0.40058 -1.36133,0 -0.90667,0.61333 -1.71946,1.25326 -2.43946,1.91992 -0.47999,0.45333 -1.10755,1.14675 -1.88085,2.08008 0.08,-0.29333 0.18697,-0.68019 0.32031,-1.16015 0.13334,-0.50667 0.20117,-0.94698 0.20117,-1.32032 0,-0.74666 -0.29411,-1.19818 -0.73828,-1.5664 -0.30451,-0.19318 -0.33686,-0.26059 -0.96289,-0.24219 -0.48007,0.11478 -0.61452,0.15031 -1.06055,0.28906 -0.66666,0.32 -1.37248,0.8262 -2.11914,1.51953 -0.47118,0.4207 -2.9854,3.30371 -4.97461,5.65235 0.15027,-0.80538 0.24414,-1.64183 0.24414,-2.53125 0,-0.93333 -0.16045,-1.78722 -0.48047,-2.56055 -0.29333,-0.77333 -0.77278,-1.46675 -1.43945,-2.08008 -0.21347,-0.17299 -0.27932,-0.25581 -0.60156,-0.48047 l -1.08008,-0.63867 c 1.54666,-0.77333 2.668,-1.6931 3.36133,-2.75977 0.69333,-1.09329 1.03906,-2.30729 1.03906,-3.64062 0,-2.02666 -0.78605,-3.54721 -2.35938,-4.56055 -1.54666,-1.03999 -3.60016,-1.55859 -6.16015,-1.55859 z m -1.51953,2.43945 c -0.42666,0 -0.69413,0.18721 -0.80078,0.56055 l -3.01954,10.39844 -2.01953,6.96093 c -0.66666,2.13333 -1.38682,3.69303 -2.16015,4.67969 -0.90667,1.14667 -2.0404,1.72071 -3.40039,1.7207 -0.64,10e-6 -1.19969,-0.0946 -1.67969,-0.28124 -0.24,-0.08 -0.61443,-0.2796 -1.1211,-0.59961 -0.23995,-0.15999 -0.43962,-0.24024 -0.5996,-0.24024 -0.21334,0 -0.40056,0.0946 -0.56055,0.28125 -0.13334,0.15999 -0.19922,0.34524 -0.19922,0.5586 0,0.29329 0.11942,0.5197 0.35937,0.67968 l 0.72071,0.48047 c 0.32491,0.17483 0.50519,0.30859 1,0.48047 0.56,0.18667 1.24102,0.2793 2.04101,0.2793 0.66667,0 1.2655,-0.0926 1.79883,-0.2793 0.31511,-0.12446 0.60496,-0.15129 1.1211,-0.48047 1.94666,-1.12 3.39937,-3.43899 4.35937,-6.95898 l 2.09961,-7.28125 2.93945,-10 c 0.08,-0.29334 0.0141,-0.5197 -0.19922,-0.67969 -0.18666,-0.18667 -0.41304,-0.2793 -0.67968,-0.2793 z m 107.16601,0.0391 c 0.77334,0 1.16016,0.48141 1.16016,1.4414 0,0.85333 -0.57209,2.14558 -1.71875,3.87891 -1.12,1.70666 -2.57445,3.49244 -3.70703,4.66601 l -1.89453,1.89453 0.59375,-1.92187 c 0.35388,-1.20023 0.88718,-2.79813 1.36718,-4.07813 0.69334,-1.86666 1.33326,-3.30698 1.91993,-4.32031 0.61333,-1.04 1.37263,-1.56054 2.27929,-1.56054 z m 11.95313,0 c 0.77333,0 1.16015,0.48141 1.16015,1.4414 0,0.85333 -0.57208,2.14558 -1.71875,3.87891 -1.11999,1.70666 -2.57444,3.49244 -3.70703,4.66601 l -1.89453,1.89453 0.59375,-1.92187 c 0.35388,-1.20023 0.88719,-2.79813 1.36719,-4.07813 0.69333,-1.86666 1.33326,-3.30698 1.91992,-4.32031 0.61333,-1.04 1.37263,-1.56054 2.2793,-1.56054 z m -59.33594,0.0801 c 0.74665,0 1.11914,0.46707 1.11914,1.40039 0,0.88 -0.55969,2.21334 -1.67969,4 -1.12,1.76 -2.54544,3.49238 -3.65234,4.58594 l -1.90625,1.81445 0.52539,-1.88085 c 0.32623,-1.16023 0.8612,-2.80024 1.39453,-4.24024 0.66667,-1.73332 1.31899,-3.13256 1.95899,-4.19922 0.29333,-0.47999 0.62665,-0.84008 1,-1.08008 0.39999,-0.26665 0.81356,-0.40039 1.24023,-0.40039 z m -17.32812,12.40039 c 0.58664,0 0.88085,0.26747 0.88085,0.80078 0,0.56 -0.27984,1.18558 -0.83984,1.87891 -0.61333,0.77333 -1.69357,1.68071 -3.24023,2.7207 -0.88,0.61333 -1.48079,1.0393 -1.80078,1.2793 0.18664,-1.81333 0.73395,-3.37302 1.64062,-4.67969 0.93333,-1.33333 2.05271,-2 3.35938,-2 z m 47.34374,0 c 0.58667,0 0.88086,0.26747 0.88086,0.80078 0,0.56 -0.27984,1.18558 -0.83984,1.87891 -0.61333,0.77333 -1.69357,1.68071 -3.24023,2.7207 -0.88,0.61333 -1.48077,1.0393 -1.80079,1.2793 0.18667,-1.81333 0.73397,-3.37302 1.64063,-4.67969 0.93333,-1.33333 2.05273,-2 3.35937,-2 z m 33.59376,0 c 0.58664,0 0.88085,0.26747 0.88085,0.80078 0,0.56 -0.27984,1.18558 -0.83984,1.87891 -0.61333,0.77333 -1.69357,1.68071 -3.24023,2.7207 -0.88,0.61333 -1.48079,1.0393 -1.80078,1.2793 0.18664,-1.81333 0.73396,-3.37302 1.64062,-4.67969 0.93333,-1.33333 2.05271,-2 3.35938,-2 z" transform="scale(0.26458333)"/></g></g><g id="layer2" transform="translate(-30.53457,-49.974727)"><path id="path980" d="m 44.863407,51.502797 c 0,0.397279 -0.778161,1.44694 -1.099674,1.281576 -0.418261,-0.215125 -0.603581,-0.189766 -0.603581,-0.587044 0,-0.397279 0.13324,-0.851628 0.603581,-0.851628 0.470341,0 1.099674,-0.240182 1.099674,0.157096 z"/><path id="path928" d="m 44.350811,51.520647 c -0.381774,0.05642 -0.48021,0.260946 -0.607834,0.550234 0.0041,-0.103607 0.125669,-0.206323 0.152249,-0.313782 0.03853,-0.155723 -0.219477,-0.273232 -0.411189,-0.281092 -0.144289,-0.0059 -0.302143,0.09353 -0.232342,0.384748 0.09939,0.445442 0.129418,0.470251 0.327006,0.963127 0.337906,-0.428563 0.613891,-0.513972 0.91673,-0.971107 0.1068,-0.22955 0.07476,-0.335724 -0.07449,-0.337975 z"/></g><g id="layer4" transform="translate(-30.53457,-49.974727)"><path d="m 73.174268,59.52944 c -0.01159,-0.0078 -0.02099,-0.02028 -0.02601,-0.03466 -0.01286,-0.037 -0.0029,-0.06994 0.06244,-0.199353 0.127676,-0.254164 0.249375,-0.492729 0.250616,-0.491313 0.0034,0.004 -0.08932,0.551219 -0.09868,0.581919 -0.03466,0.11384 -0.127349,0.184407 -0.188365,0.143413 z m 1.683548,-0.412019 c -0.03129,-0.02104 -0.073,-0.06992 -0.135933,-0.159259 -0.08503,-0.120721 -0.13204,-0.169274 -0.17688,-0.182706 -0.01775,-0.0053 -0.0263,-0.0047 -0.05265,0.0033 -0.04126,0.0125 -0.06281,0.0058 -0.09982,-0.03137 -0.03512,-0.03519 0.01358,-0.264067 -0.05446,-0.383278 -0.149299,-0.244666 -0.347095,-0.181567 -0.474323,-0.182489 -0.06181,-0.01666 -0.120341,0.0087 -0.16998,0.07394 -0.0527,0.06923 -0.120757,0.226263 -0.157811,0.364145 -0.0081,0.03017 -0.01684,0.05487 -0.01934,0.05487 -0.0072,0 -0.0051,-0.02894 0.0062,-0.101706 0.03642,-0.22971 0.03551,-0.344439 -0.0034,-0.403298 -0.01684,-0.02552 -0.0518,-0.04245 -0.07775,-0.03767 -0.05815,0.01069 -0.114382,0.06815 -0.24292,0.248259 -0.12447,0.174417 -0.18119,0.230227 -0.233901,0.230165 -0.02327,-2e-5 -0.05127,-0.01757 -0.0556,-0.03499 -0.0125,-0.0498 0.01987,-0.112065 0.147397,-0.283507 0.07367,-0.09903 0.104911,-0.146618 0.129088,-0.1966 0.03329,-0.06891 0.06924,-0.143685 0.02516,-0.168459 -0.0747,-0.04198 -0.284631,0.02899 -0.508548,0.140823 -0.04343,0.0217 -0.07896,0.03834 -0.07896,0.03698 0,-0.0014 0.01867,-0.01503 0.04149,-0.03034 0.11364,-0.07639 0.21437,-0.160545 0.26049,-0.217627 0.07201,-0.08914 0.144826,-0.16596 0.07891,-0.196409 -0.0234,-0.01087 -0.102304,-0.0054 -0.198879,-0.0049 -0.08972,4.54e-4 -0.123963,0.0033 -0.243568,0.02019 -0.206202,0.02918 -0.286645,0.03695 -0.350635,0.03385 -0.06683,-0.0033 -0.0899,-0.0094 -0.111992,-0.03006 -0.01883,-0.01757 -0.02213,-0.04348 -0.0082,-0.06355 0.02526,-0.03606 0.134811,-0.06563 0.331518,-0.08952 0.316374,-0.03839 0.41425,-0.06217 0.4549,-0.110471 0.01231,-0.01467 0.01431,-0.02103 0.01213,-0.04039 -0.0071,-0.06288 -0.07262,-0.101705 -0.282273,-0.167263 -0.167898,-0.0525 -0.22418,-0.07624 -0.262167,-0.110562 -0.04928,-0.04453 -0.03865,-0.106885 0.02014,-0.117914 0.02999,-0.0056 0.106306,0.0105 0.220583,0.04663 0.154189,0.04873 0.195606,0.05904 0.248926,0.0619 0.03961,0.0022 0.114437,0.01032 0.12983,0.0024 0.05122,-0.02658 -0.01304,-0.126299 -0.06639,-0.232184 -0.03665,-0.0728 -0.08939,-0.147941 -0.181169,-0.258111 -0.08381,-0.100601 -0.08457,-0.100764 0.03352,0.0076 0.101724,0.09341 0.205947,0.16107 0.26078,0.169292 0.03801,0.0056 0.09942,0.01757 0.121554,-0.0056 0.05879,-0.06181 0.0083,-0.186377 -0.07121,-0.296837 l -0.03256,-0.04524 0.02327,0.01887 c 0.08973,0.07277 0.175559,0.111865 0.245061,0.11163 0.08696,-2.81e-4 0.279053,0.127404 0.271154,0.01449 -0.004,-0.05779 -0.07655,-0.310835 -0.130483,-0.455495 -0.07715,-0.206996 -0.132492,-0.282486 -0.116881,-0.336202 0.0172,-0.05915 0.06826,-0.0711 0.104766,-0.02454 0.03158,0.04024 0.05167,0.106596 0.09915,0.327132 0.01912,0.0889 0.04098,0.182887 0.04848,0.208873 0.02459,0.08479 0.05504,0.14182 0.08352,0.156543 0.03562,0.01842 0.09271,2.81e-4 0.131225,-0.04169 0.03881,-0.04225 0.07423,-0.132366 0.08483,-0.215645 0.0017,-0.01467 0.0045,-0.03399 0.0065,-0.04283 0.0029,-0.01576 0.0034,-0.01576 0.0076,-0.0034 0.0024,0.0069 0.0072,0.04765 0.0105,0.09057 0.02561,0.06435 0.05134,0.311764 0.109601,0.343156 0.152722,-0.122207 0.272974,-0.286444 0.361021,-0.400773 0.147778,-0.192442 0.209308,-0.259543 0.262872,-0.286683 0.03142,-0.01594 0.05201,-0.01648 0.07983,-0.0024 0.05292,0.027 0.04928,0.08972 -0.01068,0.185448 -0.03164,0.05047 -0.07438,0.104604 -0.185741,0.235421 -0.115977,0.136223 -0.142906,0.170053 -0.17516,0.220047 -0.05219,0.08093 -0.08537,0.163479 -0.03676,0.183795 0.04888,0.02043 0.122044,-0.03546 0.237024,-0.139556 0.09557,-0.08651 0.119019,-0.101705 0.156923,-0.101705 0.04001,0 0.06795,0.03129 0.06786,0.07603 -8e-5,0.03858 -0.02271,0.069 -0.121192,0.16319 -0.105961,0.101289 -0.203084,0.194439 -0.202863,0.240908 5.24e-4,0.09102 0.182785,0.07807 0.358899,0.06962 0.03533,-0.0017 0.09251,-0.0062 0.127041,-0.0098 0.03455,-0.0036 0.0644,-0.0051 0.06634,-0.0031 0.0074,0.0074 -0.01032,0.01887 -0.04758,0.03041 -0.173004,0.05362 -0.242003,0.08265 -0.285869,0.120269 -0.04404,0.03778 -0.05752,0.09394 -0.03028,0.126335 0.03676,0.04368 0.133362,0.05967 0.403173,0.06675 0.277027,0.0072 0.367218,0.02184 0.400983,0.06476 0.0134,0.0172 0.01394,0.02434 0.0029,0.04801 -0.01105,0.02318 -0.0502,0.04274 -0.101162,0.05049 -0.0514,0.0078 -0.168351,0.0089 -0.396134,0.0034 -0.213266,-0.0051 -0.272732,-6.25e-4 -0.322532,0.02409 -0.04468,0.02217 -0.06105,0.06482 -0.04741,0.123456 0.0163,0.06974 0.06949,0.126299 0.188777,0.200429 0.0065,0.0042 0.0081,0.008 0.0045,0.01159 -0.0034,0.0036 -0.01929,0.0012 -0.04821,-0.0076 -0.176065,-0.0535 -0.246312,-0.05368 -0.301116,-7.41e-4 -0.01576,0.01521 -0.01739,0.01978 -0.01739,0.04843 0,0.07811 0.06377,0.210835 0.261593,0.544425 0.230519,0.388734 0.299523,0.527538 0.301566,0.606607 0.0011,0.03066 -0.0074,0.04808 -0.02646,0.05681 -0.02287,0.0105 -0.04701,0.0067 -0.07421,-0.01159 z m -2.880935,-0.45142 c -0.03198,-0.01594 -0.05121,-0.03678 -0.06887,-0.07452 -0.03055,-0.06545 -0.0062,-0.123872 0.06719,-0.160527 0.02789,-0.01394 0.525326,-0.246749 0.540714,-0.253056 0.01684,-0.0069 -0.0024,0.01014 -0.06223,0.05547 -0.191082,0.144391 -0.259415,0.218529 -0.307071,0.333146 -0.02271,0.05456 -0.0433,0.08343 -0.07119,0.09979 -0.03062,0.01793 -0.06217,0.01775 -0.09856,-2.81e-4 z m 1.861727,-0.0069 c -0.06089,-0.01952 -0.104676,-0.06295 -0.103626,-0.102811 0.0011,-0.04107 0.05201,-0.10252 0.09106,-0.109837 0.04542,-0.0085 0.114184,0.02746 0.143522,0.07505 0.02112,0.03426 0.02282,0.08057 0.004,0.110942 -0.02186,0.03537 -0.07503,0.04587 -0.134992,0.02664 z m 1.586107,-0.174092 c -0.0125,-0.004 -0.03187,-0.01431 -0.04325,-0.02269 -0.02372,-0.01757 -0.563335,-0.544327 -0.560519,-0.547147 0.0011,-10e-4 0.0544,0.0311 0.118675,0.07137 0.175612,0.110072 0.293832,0.165761 0.392508,0.184888 0.0163,0.0031 0.06438,0.008 0.107067,0.01069 0.07182,0.0047 0.08021,0.0063 0.112408,0.02249 0.02481,0.0125 0.03939,0.0241 0.05087,0.04068 0.01485,0.02142 0.01612,0.02679 0.01612,0.0696 0,0.03845 -0.0024,0.05096 -0.01322,0.07315 -0.03732,0.07584 -0.11594,0.118023 -0.180665,0.09692 z m 0.115415,-1.491281 c -0.06255,-0.0284 -0.09441,-0.03388 -0.178492,-0.03075 -0.05304,0.002 -0.09935,0.0076 -0.157991,0.01936 -0.04564,0.0091 -0.08658,0.01648 -0.091,0.0163 -0.0045,-1.75e-4 0.0799,-0.03533 0.187364,-0.07816 0.219515,-0.08747 0.238096,-0.09218 0.281181,-0.07132 0.04091,0.01981 0.06735,0.07099 0.05917,0.114636 -0.0085,0.04578 -0.04285,0.05603 -0.100239,0.02997 z m -3.433276,-0.278324 c -0.03573,-0.0172 -0.05623,-0.04042 -0.05623,-0.0638 0,-0.01775 0.02305,-0.05585 0.04086,-0.0675 0.03216,-0.02108 0.08912,-0.0022 0.11699,0.03888 0.01981,0.02918 0.01889,0.06621 -0.0024,0.08731 -0.01376,0.01376 -0.01941,0.01557 -0.04683,0.01557 -0.01958,-7.5e-5 -0.03915,-0.004 -0.05259,-0.01032 z m -0.52461,-0.240687 c -0.04888,-0.0134 -0.07186,-0.0234 -0.112445,-0.04902 -0.06092,-0.03847 -0.109529,-0.104187 -0.109656,-0.148266 -7.4e-5,-0.02501 0.01721,-0.0707 0.03926,-0.103952 0.04609,-0.06941 0.11364,-0.116737 0.166684,-0.116737 0.09269,0 0.218004,0.08374 0.260909,0.174345 0.01594,0.03372 0.01757,0.04147 0.0172,0.08528 -5.68e-4,0.07572 -0.02829,0.126824 -0.08198,0.151708 -0.0408,0.01891 -0.12389,0.02197 -0.179904,0.0067 z m 3.310032,-0.07286 c -0.01739,-0.0094 -0.02823,-0.03837 -0.02128,-0.05661 0.01141,-0.02963 0.04308,-0.04297 0.06963,-0.02927 0.03204,0.01666 0.03751,0.05275 0.01177,0.07842 -0.01739,0.01757 -0.03722,0.01994 -0.0602,0.0074 z m -1.939643,-0.05471 c -0.0134,-0.01684 -0.04529,-0.06204 -0.07101,-0.100275 -0.09376,-0.139411 -0.174345,-0.226393 -0.328051,-0.354079 -0.124633,-0.103535 -0.152287,-0.142779 -0.152287,-0.216125 0,-0.03459 0.0024,-0.04417 0.01612,-0.06916 0.02561,-0.04622 0.08311,-0.08072 0.134593,-0.08072 0.03216,0 0.074,0.01992 0.09979,0.0475 0.03129,0.03349 0.03158,0.03401 0.09799,0.205114 0.03119,0.08041 0.09044,0.232913 0.131624,0.338905 0.0964,0.24815 0.100728,0.259629 0.09792,0.259629 -0.0011,0 -0.01322,-0.01376 -0.02664,-0.03079 z m 0.940984,-0.445506 c -0.02054,-0.0125 -0.0272,-0.03298 -0.01684,-0.05214 0.01793,-0.03363 0.04701,-0.03528 0.07787,-0.0045 0.01963,0.01963 0.0226,0.03665 0.0096,0.05524 -0.01087,0.01557 -0.04614,0.01612 -0.07048,0.0013 z m 0.03461,-0.294747 c -0.06215,-0.01557 -0.110996,-0.05965 -0.110996,-0.100221 0,-0.01896 0.02385,-0.05728 0.0498,-0.08001 0.02566,-0.02249 0.04912,-0.02659 0.08468,-0.01485 0.03732,0.01232 0.08695,0.06 0.09524,0.0914 0.01032,0.03876 -0.0063,0.08466 -0.03528,0.09789 -0.01998,0.0091 -0.05915,0.01177 -0.08343,0.0058 z" id="path2242"/></g><g id="layer3" transform="translate(-30.53457,-49.974727)"><path d="m 44.183763,52.069986 c 0,0.09878 -0.03175,0.179916 -0.09525,0.243416 -0.0635,0.0635 -0.148166,0.09525 -0.253999,0.09525 -0.225777,0 -0.338665,-0.112888 -0.338665,-0.338665 0,-0.09172 0.03175,-0.172861 0.09525,-0.243416 0.0635,-0.07055 0.144639,-0.105833 0.243416,-0.105833 0.09878,0 0.179916,0.03528 0.243416,0.105833 0.07055,0.0635 0.105833,0.144639 0.105833,0.243416 z m -0.836081,1.523992 c -29.876609,-34.506281 -14.938304,-17.253141 0,0 z" id="path843-1"/></g></svg>