<svg xmlns="http://www.w3.org/2000/svg" width="145.853" height="139.502" viewBox="0 0 38.59 36.91"><path d="M218.597 106.895c0 8.57-16.786 31.21-23.721 27.644-9.022-4.64-13.02-4.093-13.02-12.663s2.874-18.37 13.02-18.37 23.72-5.18 23.72 3.389" style="display:inline;fill:#d47479;fill-opacity:1;stroke-width:4.69944;stroke-linecap:butt;stroke-linejoin:round;stroke-miterlimit:4;stroke-dasharray:none;paint-order:markers stroke fill" transform="translate(-180.006 -101.954)"/><path d="M207.54 107.28c-8.235 1.216-10.359 5.628-13.112 11.869.086-2.235 2.711-4.451 3.284-6.769.83-3.359-4.734-5.894-8.87-6.063-3.112-.13-6.517 2.017-5.01 8.299 2.143 9.608 2.79 10.144 7.053 20.775 7.289-9.244 13.242-11.086 19.774-20.947 2.304-4.952 1.614-7.242-1.607-7.29z" style="display:inline;fill:none;stroke:#000;stroke-width:6.94572;stroke-linecap:butt;stroke-linejoin:round;stroke-miterlimit:4;stroke-dasharray:none;stroke-opacity:1" transform="translate(-180.006 -101.954)"/></svg>